v -1.415858865 -1.5 1.44128418
vn 0 0.7488706112 -0.6627162695
v -0.2857140005 -1.5 1.44128418
vn 0.1101000831 0.02097141556 -0.9936992526
v -0.2730008364 -1.5 1.44128418
vn 0 0.7488706112 -0.6627162695
v -1.428570986 -1.5 1.44128418
vn 0.1081209034 0.02059442922 -0.993924439
v 2 1.5 1.44128418
vn 0.4613480866 -5.432650948e-17 -0.8872191906
v 2 1.988875985 1.44128418
vn 0.8944275379 -2.738389193e-17 -0.4472129047
v 0.8571429849 -1.5 1.44128418
vn 0.1101000831 0.02097146213 -0.9936992526
v -0.2857140005 1.5 1.44128418
vn 0.5880835056 -0.002548840828 -0.8087961674
v -0.2857140005 -1.433255792 1.44128418
vn 0.8862156272 -2.836728891e-17 -0.4632729888
v 0.8698561788 -1.5 1.44128418
vn 0 0.7488706112 -0.6627162695
v -0.8571429849 1.5 1.44128418
vn -0.5854964852 -0.1115232334 -0.8029672503
v -0.8571429849 -1.433255792 1.44128418
vn -0.8903386593 -2.787901412e-17 -0.455298841
v -0.2984271944 -2 1.44128418
vn 0 -0.7451774478 -0.6668662429
v -0.8698561788 -2 1.44128418
vn 0 -0.7488702536 -0.6627166271
v -0.8571429849 -2 1.44128418
vn 0 -0.7451774478 -0.6668662429
v -0.2857140005 -2 1.44128418
vn 0 -0.737832725 -0.6749836206
v 0.2730008364 -2 1.44128418
vn 0 -0.7488706112 -0.6627162695
v 0.2857140005 -2 1.44128418
vn 0 -0.7451774478 -0.6668662429
v 1.428572059 2 1.44128418
vn 0 0.4919144213 -0.8706435561
v -1.428570986 -2 1.44128418
vn 0 -0.7378333211 -0.674982965
v -1.441283107 -2 1.44128418
vn 0 -0.7488702536 -0.6627166271
v -2 -2 1.44128418
vn -0.5499714613 -0.6285392642 -0.5499725342
v -2 -1.5 1.44128418
vn -0.4658613503 -5.418190838e-17 -0.8848577142
v -2 -1.511123061 1.44128418
vn -0.7030954957 -4.354203636e-17 -0.7110953927
v 1.428572059 -1.5 2
vn -0.3677290082 0.1400873661 0.9193208814
v 0.8571429849 -2 2
vn 0 -0.7525769472 0.6585043073
v 1.428572059 -2 2
vn 0 -0.7525767684 0.6585045457
v 0.8571429849 -1.5 2
vn 0.5516297221 0.1050724164 0.8274445534
v 0.2857140005 -1.5 2
vn -0.3677285314 0.1400869191 0.9193211794
v -0.2857140005 -1.5 2
vn 0.5516298413 0.1050722525 0.8274444342
v 1.428572059 2 2
vn 0 0.7525769472 0.6585043073
v -2 1.5 1.44128418
vn -0.6991081834 -4.378209741e-17 -0.7150158882
v 2 -2 1.44128418
vn 0.6584296823 -0.7524930835 -0.01498211455
v 2 -1.5 1.44128418
vn 0.6899049282 -4.432608778e-17 -0.7238999605
v 2 -1.988875985 1.44128418
vn 0.9999352694 -6.966047762e-19 -0.0113764191
v -1.428570986 2 2
vn 0 0.7525763512 0.6585050225
v -1.428570986 -1.433261275 1.44128418
vn 0.8862159252 -2.836725252e-17 -0.4632723629
v -1.428570986 1.5 1.44128418
vn 0.5880596638 -0.00254852348 -0.8088135719
v 0.8698561788 1.5 1.44128418
vn 0 -0.7488706112 -0.6627162695
v -0.2730008364 1.5 1.44128418
vn 0 -0.7488706112 -0.6627162695
v -1.415858865 1.5 1.44128418
vn 0 -0.7488702536 -0.6627166271
v -1.987287879 2 1.44128418
vn 0 0.7488702536 -0.6627166271
v -0.8571429849 -1.5 1.44128418
vn -0.0380939953 0.3188848794 -0.9470276237
v 0.2857140005 1.5 1.44128418
vn -0.5854966044 -0.1115230322 -0.8029672503
v 0.2857140005 -1.433255792 1.44128418
vn -0.8903386593 -2.787901412e-17 -0.455298841
v 0.2857140005 -1.5 1.44128418
vn -0.03809402138 0.3188845217 -0.9470277429
v 0.8571429849 1.5 1.44128418
vn 0.5880835056 -0.002548846882 -0.8087961674
v 0.8571429849 -1.433255792 1.44128418
vn 0.8862156272 -2.836729222e-17 -0.4632730186
v 0.844429791 -2 1.44128418
vn 0 -0.7451774478 -0.6668662429
v 0.8571429849 -2 1.44128418
vn 0 -0.737832725 -0.6749836206
v 1.415858865 -2 1.44128418
vn 0 -0.7488706112 -0.6627162695
v 1.428572059 -1.5 1.44128418
vn -0.03955009952 0.3310739398 -0.9427756071
v 1.428572059 -1.433255792 1.44128418
vn -0.8903390169 -2.787897442e-17 -0.4552982152
v 1.428572059 1.5 1.44128418
vn -0.5791417956 -0.1103128195 -0.807728827
v 1.987286806 -2 1.44128418
vn 0 -0.7451774478 -0.6668662429
v 1.428572059 -2 1.44128418
vn 0 -0.7451774478 -0.6668662429
v 2 2 1.44128418
vn 0.01990211941 0.9996038079 -0.01990208216
v 1.441285253 2 1.44128418
vn 0 0.7451774478 -0.6668662429
v -2 2 1.44128418
vn -0.9994036555 0.02598719485 -0.0227388218
v -2 1.511123061 1.44128418
vn -0.8862159848 -2.836724921e-17 -0.4632723629
v -0.8571429849 -1.5 2
vn -0.3677285314 0.140086785 0.9193211794
v -1.428570986 -1.5 2
vn 0.5516291261 0.1050721109 0.8274449706
v 1.428572059 1.5 2
vn -0.7908711433 -0.1506422609 0.5931524038
v 0.8571429849 1.5 2
vn 0.6235923767 -0.05938980356 0.7794904709
v 0.2857140005 1.5 2
vn -0.7908707857 -0.1506419033 0.5931529403
v -0.2857140005 1.5 2
vn 0.6235924959 -0.05938970298 0.7794904113
v -0.8571429849 2 2
vn 0 0.7525767684 0.6585045457
v -0.2857140005 2 2
vn 0 0.7525769472 0.6585043073
v 0.2857140005 2 2
vn 0 0.7525769472 0.6585043073
v 0.8571429849 2 2
vn 0 0.7525769472 0.6585043073
v -1.428570986 1.5 2
vn 0.6235917807 -0.05938962102 0.7794910073
v -0.8571429849 1.5 2
vn -0.7908708453 -0.1506417692 0.5931529403
v 0.2984271944 2 1.44128418
vn 0 0.7451774478 -0.6668662429
v 0.8571429849 2 1.44128418
vn 0 0.7451774478 -0.6668662429
v 0.8698561788 2 1.44128418
vn 0 0.9093827009 -0.4159604311
v -2 -1.433261275 1.44128418
vn -0.8903386593 -2.787901412e-17 -0.4552988708
v 2 1.433255792 1.44128418
vn 0.8903390169 -2.787897111e-17 -0.4552981257
v -0.8571429849 2 1.44128418
vn 0 0.4919144213 -0.8706435561
v 0.5714284778 0.03337210417 1.44128418
vn 1.224646853e-16 -6.123234263e-17 -1
v -2 1.5 2
vn -0.8516578674 3.209175565e-17 0.5240981579
v 2 1.5 2
vn 0.5240981579 5.214900284e-17 0.8516578674
v -2 -1.5 2
vn -0.4472129345 5.476788975e-17 0.8944275379
v 2 -1.5 2
vn 0.8944275379 2.738389359e-17 0.4472129345
v 2 -2 2
vn 0.3982166648 -0.4551042318 0.7964317799
v -2 -2 2
vn -0.6254734993 -0.7148274183 0.3127373457
v 2 2 2
vn 0.3127373457 0.7148274183 0.6254734993
v -2 2 2
vn -0.7964317799 0.4551042318 0.3982166648
v -1.428570986 -2 2
vn 0 -0.7525763512 0.6585050225
v -0.8571429849 -2 2
vn 0 -0.752577126 0.6585041285
v -0.2857140005 -2 2
vn 0 -0.7525767684 0.6585045457
v 0.2857140005 -2 2
vn 0 -0.752577126 0.6585041285
v 1.714286089 2.980232239e-08 1.44128418
vn 1.224646853e-16 -6.123234263e-17 -1
v -0.5714284778 0.03337210417 1.44128418
vn 1.224646853e-16 -6.123234263e-17 -1
v -1.714285493 0.03336936235 1.44128418
vn 1.224646853e-16 -6.123234263e-17 -1
v 0.2857140005 2 1.44128418
vn 0 0.4919144213 -0.8706435561
v -0.2730008364 2 1.44128418
vn 0 0.9093827009 -0.4159604311
v -0.2857140005 2 1.44128418
vn 0 0.7451774478 -0.6668662429
v -0.844429791 2 1.44128418
vn 0 0.7451774478 -0.6668662429
v -1.415858865 2 1.44128418
vn 0 0.9093829989 -0.4159598351
v -1.428570986 2 1.44128418
vn 0 0.7451774478 -0.6668662429
# mm_gid 0
g mmGroup0
f 81//81 77//77 5//5 
f 81//81 83//83 77//77 
f 83//83 34//34 77//77 
f 25//25 81//81 63//63 
f 25//25 83//83 81//81 
f 29//29 64//64 65//65 
f 29//29 28//28 64//64 
f 61//61 66//66 72//72 
f 61//61 30//30 66//66 
f 80//80 32//32 76//76 
f 82//82 76//76 23//23 
f 82//82 80//80 76//76 
f 31//31 19//19 75//75 
f 70//70 75//75 74//74 
f 70//70 31//31 75//75 
f 70//70 74//74 73//73 
f 69//69 73//73 95//95 
f 69//69 70//70 73//73 
f 69//69 95//95 96//96 
f 68//68 96//96 97//97 
f 68//68 69//69 96//96 
f 68//68 97//97 98//98 
f 67//67 98//98 78//78 
f 67//67 68//68 98//98 
f 67//67 78//78 99//99 
f 36//36 99//99 100//100 
f 36//36 67//67 99//99 
f 36//36 100//100 42//42 
f 87//87 42//42 59//59 
f 87//87 36//36 42//42 
f 64//64 31//31 70//70 
f 64//64 63//63 31//31 
f 65//65 70//70 69//69 
f 65//65 64//64 70//70 
f 66//66 69//69 68//68 
f 66//66 65//65 69//69 
f 72//72 68//68 67//67 
f 72//72 66//66 68//68 
f 71//71 67//67 36//36 
f 71//71 72//72 67//67 
f 80//80 36//36 87//87 
f 80//80 71//71 36//36 
f 72//72 41//41 11//11 
f 38//38 41//41 71//71 
f 72//72 71//71 41//41 
f 65//65 40//40 44//44 
f 8//8 40//40 66//66 
f 65//65 66//66 40//40 
f 63//63 39//39 54//54 
f 47//47 39//39 64//64 
f 63//63 64//64 39//39 
f 4//4 37//37 62//62 
f 71//71 62//62 37//37 
f 71//71 37//37 38//38 
f 82//82 71//71 80//80 
f 82//82 62//62 71//71 
f 86//86 6//6 57//57 
f 86//86 81//81 6//6 
f 81//81 5//5 6//6 
f 89//89 62//62 88//88 
f 89//89 61//61 62//62 
f 90//90 61//61 89//89 
f 90//90 30//30 61//61 
f 91//91 30//30 90//90 
f 91//91 29//29 30//30 
f 26//26 29//29 91//91 
f 26//26 28//28 29//29 
f 27//27 28//28 26//26 
f 27//27 25//25 28//28 
f 84//84 25//25 27//27 
f 84//84 83//83 25//25 
f 62//62 1//1 4//4 
f 62//62 61//61 1//1 
f 61//61 43//43 1//1 
f 30//30 3//3 2//2 
f 30//30 29//29 3//3 
f 29//29 46//46 3//3 
f 2//2 9//9 30//30 
f 66//66 30//30 9//9 
f 66//66 9//9 8//8 
f 28//28 10//10 7//7 
f 28//28 25//25 10//10 
f 25//25 52//52 10//10 
f 72//72 11//11 12//12 
f 61//61 12//12 43//43 
f 61//61 72//72 12//12 
f 65//65 44//44 45//45 
f 29//29 45//45 46//46 
f 29//29 65//65 45//45 
f 7//7 48//48 28//28 
f 64//64 28//28 48//48 
f 64//64 48//48 47//47 
f 63//63 54//54 53//53 
f 25//25 53//53 52//52 
f 25//25 63//63 53//53 
f 27//27 51//51 56//56 
f 27//27 26//26 51//51 
f 26//26 50//50 51//51 
f 26//26 49//49 50//50 
f 26//26 91//91 49//49 
f 91//91 18//18 49//49 
f 91//91 17//17 18//18 
f 91//91 90//90 17//17 
f 90//90 16//16 17//17 
f 90//90 13//13 16//16 
f 90//90 89//89 13//13 
f 89//89 15//15 13//13 
f 89//89 14//14 15//15 
f 89//89 88//88 14//14 
f 88//88 20//20 14//14 
f 88//88 21//21 20//20 
f 88//88 85//85 21//21 
f 85//85 22//22 21//21 
f 85//85 24//24 22//22 
f 23//23 24//24 82//82 
f 85//85 82//82 24//24 
f 84//84 55//55 33//33 
f 84//84 27//27 55//55 
f 27//27 56//56 55//55 
f 63//63 86//86 31//31 
f 63//63 81//81 86//86 
f 86//86 57//57 58//58 
f 31//31 58//58 19//19 
f 31//31 86//86 58//58 
f 87//87 59//59 60//60 
f 80//80 60//60 32//32 
f 80//80 87//87 60//60 
f 33//33 35//35 84//84 
f 83//83 84//84 35//35 
f 83//83 35//35 34//34 
f 88//88 82//82 85//85 
f 88//88 62//62 82//82 
# mm_gid 144
g mmGroup144
f 54//54 92//92 53//53 
f 34//34 92//92 77//77 
f 44//44 79//79 45//45 
f 48//48 79//79 47//47 
f 11//11 93//93 12//12 
f 9//9 93//93 8//8 
f 76//76 94//94 37//37 
f 38//38 94//94 32//32 
f 35//35 33//33 55//55 
f 35//35 55//55 34//34 
f 55//55 56//56 52//52 
f 56//56 51//51 52//52 
f 51//51 50//50 10//10 
f 50//50 49//49 7//7 
f 49//49 18//18 46//46 
f 18//18 17//17 46//46 
f 17//17 16//16 3//3 
f 16//16 13//13 2//2 
f 13//13 15//15 43//43 
f 15//15 14//14 43//43 
f 14//14 20//20 1//1 
f 21//21 24//24 4//4 
f 24//24 23//23 4//4 
f 20//20 4//4 1//1 
f 23//23 76//76 37//37 
f 76//76 32//32 94//94 
f 60//60 42//42 38//38 
f 38//38 37//37 94//94 
f 100//100 99//99 38//38 
f 99//99 78//78 41//41 
f 78//78 98//98 11//11 
f 98//98 97//97 8//8 
f 97//97 96//96 8//8 
f 96//96 95//95 40//40 
f 95//95 73//73 44//44 
f 73//73 74//74 47//47 
f 74//74 75//75 47//47 
f 75//75 19//19 39//39 
f 19//19 58//58 54//54 
f 58//58 57//57 6//6 
f 75//75 39//39 47//47 
f 19//19 54//54 39//39 
f 5//5 77//77 54//54 
f 13//13 43//43 2//2 
f 55//55 52//52 34//34 
f 43//43 12//12 9//9 
f 32//32 60//60 38//38 
f 23//23 37//37 4//4 
f 42//42 100//100 38//38 
f 49//49 46//46 7//7 
f 73//73 47//47 44//44 
f 95//95 44//44 40//40 
f 50//50 7//7 10//10 
f 96//96 40//40 8//8 
f 11//11 8//8 93//93 
f 46//46 45//45 48//48 
f 43//43 9//9 2//2 
f 21//21 22//22 24//24 
f 9//9 12//12 93//93 
f 16//16 2//2 3//3 
f 98//98 8//8 11//11 
f 78//78 11//11 41//41 
f 51//51 10//10 52//52 
f 99//99 41//41 38//38 
f 44//44 47//47 79//79 
f 54//54 77//77 92//92 
f 14//14 1//1 43//43 
f 58//58 6//6 5//5 
f 17//17 3//3 46//46 
f 46//46 48//48 7//7 
f 20//20 21//21 4//4 
f 48//48 45//45 79//79 
f 60//60 59//59 42//42 
f 58//58 5//5 54//54 
f 34//34 52//52 53//53 
f 34//34 53//53 92//92 
